
<svg width="202px" height="99px" viewBox="0 0 202 99" version="1.1" xmlns="http://www.w3.org/2000/svg" xmlns:xlink="http://www.w3.org/1999/xlink">
    <!-- Generator: Sketch 45.2 (43514) - http://www.bohemiancoding.com/sketch -->
    <desc>Created with Sketch.</desc>
    <defs>
        <polygon id="path-1" points="0 98.733332 201.926228 98.733332 201.926228 0.168014009 0 0.168014009"></polygon>
    </defs>
    <g id="Web" stroke="none" stroke-width="1" fill="none" fill-rule="evenodd">
        <g id="01-Home" transform="translate(-599.000000, -41.000000)">
            <g id="Navigation">
                <g id="Logo" transform="translate(599.000000, 41.000000)">
                    <polygon id="Fill-1" fill="#FFFFFF" points="0.378720876 0.334689261 24.1206484 61.9248764 37.6872718 61.9248764 15.1771129 0.334689261"></polygon>
                    <polygon id="Fill-2" fill="#FFFFFF" points="46.6220547 0.334689261 24.1118958 61.9248764 37.6788558 61.9248764 61.4207833 0.334689261"></polygon>
                    <polygon id="Fill-3" fill="#FFFFFF" points="46.6220547 0.334689261 70.3643189 61.9248764 83.9312789 61.9248764 61.42112 0.334689261"></polygon>
                    <polygon id="Fill-4" fill="#FFFFFF" points="92.8659945 0.334689261 70.3558356 61.9248764 83.9224589 61.9248764 107.664387 0.334689261"></polygon>
                    <polygon id="Fill-5" fill="#FFFFFF" points="139.896159 46.761177 139.896159 61.4737822 201.845132 37.8694874 201.845132 24.3815102"></polygon>
                    <polygon id="Fill-6" fill="#FFFFFF" points="139.896159 15.4984221 201.845132 37.8780889 201.845132 24.389777 139.896159 0.785482226"></polygon>
                    <polygon id="Fill-7" fill="#FFFFFF" points="19.7462035 74.9520869 17.2587648 85.6879144 16.6827724 88.5300956 16.1151961 85.5724466 13.8980799 74.9520869 9.78432958 74.9520869 7.6769583 85.6353681 7.13900634 88.5300956 6.60206429 85.5744547 4.13886372 74.9520869 -0.000134656311 74.9520869 5.29017518 93.5015698 8.9110834 93.5015698 11.1645568 82.6532868 11.8220162 79.0670914 12.4808222 82.6532868 14.7339589 93.5015698 18.4666319 93.5015698 23.7155349 74.9520869"></polygon>
                    <g id="Group-32" transform="translate(0.000000, 0.166675)">
                        <path d="M27.619356,82.9941009 C27.1093453,83.5165508 26.7891999,84.2244186 26.6582466,85.1173696 L32.872972,85.1173696 C32.8073271,84.1648439 32.4871817,83.4425845 31.9121993,82.9499219 C31.3372168,82.4569246 30.6242116,82.209924 29.7728471,82.209924 C28.8464117,82.209924 28.1293668,82.4713163 27.619356,82.9941009 L27.619356,82.9941009 Z M33.0160444,79.8958824 C33.9785004,80.3242847 34.7733092,81.0006917 35.4001344,81.9247687 C35.9653542,82.7397371 36.3316194,83.6845649 36.4996031,84.7602561 C36.5965557,85.3908107 36.6359427,86.298488 36.6181007,87.4829533 L26.5697101,87.4829533 C26.6255925,88.8588608 27.1066521,89.82377 28.0128891,90.377346 C28.5636334,90.7214066 29.2264791,90.8931022 30.0017628,90.8931022 C30.8231663,90.8931022 31.4910616,90.6835867 32.0044388,90.2645557 C32.284524,90.0379711 32.5322916,89.7230285 32.7470684,89.3203973 L36.4299185,89.3203973 C36.332966,90.1336922 35.8872536,90.9610441 35.0927813,91.799106 C33.8566364,93.1331774 32.1269761,93.8002131 29.9017805,93.8002131 C28.0660784,93.8002131 26.4461629,93.2376004 25.0423709,92.1123751 C23.6385788,90.9874845 22.9370195,89.1567343 22.9370195,86.6211284 C22.9370195,84.2445 23.5705774,82.423121 24.8376933,81.1549834 C26.1048092,79.8875152 27.7492994,79.252275 29.7711639,79.252275 C30.9722982,79.252275 32.0535884,79.4671455 33.0160444,79.8958824 L33.0160444,79.8958824 Z" id="Fill-8" fill="#FFFFFF"></path>
                        <path d="M42.5160471,86.3249954 L47.2939897,86.3249954 L44.936831,79.0264267 L42.5160471,86.3249954 Z M42.7729041,74.7852443 L47.1842448,74.7852443 L53.7850972,93.3347273 L49.5572257,93.3347273 L48.3261303,89.5216125 L41.4556287,89.5216125 L40.1905326,93.3347273 L36.1128029,93.3347273 L42.7729041,74.7852443 Z" id="Fill-10" fill="#FFFFFF"></path>
                        <path d="M62.2354877,79.2971568 C62.2816075,79.3011731 62.3849562,79.3078669 62.5455339,79.3158994 L62.5455339,82.9901181 C62.3172914,82.9653511 62.1153069,82.9482819 61.9375606,82.9399147 C61.7604876,82.9318822 61.6170786,82.9275312 61.5073337,82.9275312 C60.0557387,82.9275312 59.0815002,83.3974349 58.5832719,84.3369077 C58.3052066,84.865382 58.1658373,85.6793463 58.1658373,86.7788005 L58.1658373,93.3343591 L54.5331467,93.3343591 L54.5331467,79.6177891 L57.9759719,79.6177891 L57.9759719,82.0091439 C58.5331124,81.0944381 59.0178751,80.4695733 59.4316067,80.1342146 C60.1065714,79.5719367 60.9838573,79.2907977 62.0644742,79.2907977 C62.1318023,79.2907977 62.188358,79.2924712 62.2354877,79.2971568" id="Fill-12" fill="#FFFFFF"></path>
                        <path d="M66.9566726,82.9941009 C66.4466619,83.5165508 66.1268531,84.2244186 65.9958999,85.1173696 L72.2106253,85.1173696 C72.1449803,84.1648439 71.8248349,83.4425845 71.2498525,82.9499219 C70.67487,82.4569246 69.9618649,82.209924 69.1105003,82.209924 C68.1847382,82.209924 67.4670201,82.4713163 66.9566726,82.9941009 M72.3536976,79.8958824 C73.3161536,80.3242847 74.1109625,81.0006917 74.7377876,81.9247687 C75.3030075,82.7397371 75.6692726,83.6845649 75.8372564,84.7602561 C75.9342089,85.3908107 75.9735959,86.298488 75.9557539,87.4829533 L65.9073633,87.4829533 C65.9632457,88.8588608 66.444642,89.82377 67.3502057,90.377346 C67.90095,90.7214066 68.5641324,90.8931022 69.3390794,90.8931022 C70.1608196,90.8931022 70.8287149,90.6835867 71.3420921,90.2645557 C71.6221772,90.0379711 71.8702814,89.7230285 72.084385,89.3203973 L75.7675717,89.3203973 C75.6706192,90.1336922 75.2249068,90.9610441 74.4300979,91.799106 C73.1942896,93.1331774 71.4642927,93.8002131 69.2394338,93.8002131 C67.4037316,93.8002131 65.7838162,93.2376004 64.3800241,92.1123751 C62.9762321,90.9874845 62.2746727,89.1567343 62.2746727,86.6211284 C62.2746727,84.2445 62.9082306,82.423121 64.1753465,81.1549834 C65.4421258,79.8875152 67.0869526,79.252275 69.1088171,79.252275 C70.3099514,79.252275 71.3912416,79.4671455 72.3536976,79.8958824" id="Fill-14" fill="#FFFFFF"></path>
                        <path d="M80.5597205,78.0067624 L80.5597205,90.1131423 L84.1600937,90.1131423 C86.0028653,90.1131423 87.2871499,89.2114894 88.0139573,87.4071796 C88.4111934,86.4178382 88.6101481,85.2387279 88.6101481,83.8711876 C88.6101481,81.9835402 88.3118844,80.5346703 87.7163669,79.5235741 C87.1205127,78.5124778 85.9355371,78.0067624 84.1600937,78.0067624 L80.5597205,78.0067624 Z M87.7072776,75.1883441 C89.0164735,75.6157423 90.0765554,76.4002539 90.8871864,77.5412096 C91.5372397,78.4642826 91.9805956,79.4626606 92.2172541,80.5363438 C92.4535759,81.6103616 92.5720735,82.6335067 92.5720735,83.6067831 C92.5720735,86.0737776 92.0735085,88.1625733 91.0773884,89.8738395 C89.7261123,92.1811872 87.6399494,93.3348611 84.8192363,93.3348611 L76.7752049,93.3348611 L76.7752049,74.7853782 L84.8192363,74.7853782 C85.9762707,74.8021127 86.9387267,74.9369925 87.7072776,75.1883441 L87.7072776,75.1883441 Z" id="Fill-16" fill="#FFFFFF"></path>
                        <path d="M97.502245,82.9941009 C96.9922342,83.5165508 96.6724255,84.2244186 96.5414722,85.1173696 L102.756198,85.1173696 C102.690553,84.1648439 102.370407,83.4425845 101.795088,82.9499219 C101.220442,82.4569246 100.507101,82.209924 99.655736,82.209924 C98.7296373,82.209924 98.0125924,82.4713163 97.502245,82.9941009 M102.898933,79.8958824 C103.861726,80.3242847 104.656198,81.0006917 105.28336,81.9247687 C105.84858,82.7397371 106.214845,83.6845649 106.382492,84.7602561 C106.479445,85.3908107 106.519168,86.298488 106.501326,87.4829533 L96.4529357,87.4829533 C96.508818,88.8588608 96.9898777,89.82377 97.8957781,90.377346 C98.4465224,90.7214066 99.1097047,90.8931022 99.8843151,90.8931022 C100.706055,90.8931022 101.374287,90.6835867 101.887664,90.2645557 C102.16775,90.0379711 102.415517,89.7230285 102.629957,89.3203973 L106.312807,89.3203973 C106.216528,90.1336922 105.770143,90.9610441 104.975334,91.799106 C103.739862,93.1331774 102.009865,93.8002131 99.7850061,93.8002131 C97.9489673,93.8002131 96.3293885,93.2376004 94.9255965,92.1123751 C93.5218044,90.9874845 92.820245,89.1567343 92.820245,86.6211284 C92.820245,84.2445 93.453803,82.423121 94.7209189,81.1549834 C95.9876981,79.8875152 97.632525,79.252275 99.6540528,79.252275 C100.855524,79.252275 101.936477,79.4671455 102.898933,79.8958824" id="Fill-18" fill="#FFFFFF"></path>
                        <polygon id="Fill-20" fill="#FFFFFF" points="115.529291 79.6177891 119.40268 79.6177891 114.420397 93.3346938 110.616692 93.3346938 105.668746 79.6177891 109.719208 79.6177891 112.592437 89.7354455"></polygon>
                        <path d="M123.744437,82.9941009 C123.23409,83.5165508 122.914281,84.2244186 122.783328,85.1173696 L128.99839,85.1173696 C128.932408,84.1648439 128.611926,83.4425845 128.036944,82.9499219 C127.462298,82.4569246 126.748956,82.209924 125.897928,82.209924 C124.972166,82.209924 124.254111,82.4713163 123.744437,82.9941009 M129.140789,79.8958824 C130.103245,80.3242847 130.898054,81.0006917 131.525216,81.9247687 C132.090435,82.7397371 132.456701,83.6845649 132.624684,84.7602561 C132.7213,85.3908107 132.761024,86.298488 132.743182,87.4829533 L122.694455,87.4829533 C122.750337,88.8588608 123.231733,89.82377 124.137634,90.377346 C124.688378,90.7214066 125.35156,90.8931022 126.126507,90.8931022 C126.948248,90.8931022 127.616143,90.6835867 128.129183,90.2645557 C128.409269,90.0379711 128.657373,89.7230285 128.871813,89.3203973 L132.554663,89.3203973 C132.458384,90.1336922 132.012335,90.9610441 131.217189,91.799106 C129.981381,93.1331774 128.251721,93.8002131 126.027198,93.8002131 C124.190823,93.8002131 122.570571,93.2376004 121.167452,92.1123751 C119.76366,90.9874845 119.061764,89.1567343 119.061764,86.6211284 C119.061764,84.2445 119.695659,82.423121 120.962775,81.1549834 C122.229554,79.8875152 123.874381,79.252275 125.896245,79.252275 C127.097043,79.252275 128.178333,79.4671455 129.140789,79.8958824" id="Fill-22" fill="#FFFFFF"></path>
                        <mask id="mask-2" fill="white">
                            <use xlink:href="#path-1"></use>
                        </mask>
                        <g id="Clip-25"></g>
                        <polygon id="Fill-24" fill="#FFFFFF" mask="url(#mask-2)" points="133.347115 93.3347942 136.954558 93.3347942 136.954558 74.7853113 133.347115 74.7853113"></polygon>
                        <path d="M147.797152,89.6744986 C148.362371,88.9288109 148.645486,87.8691847 148.645486,86.4949506 C148.645486,85.1213859 148.362371,84.0637678 147.797152,83.3224311 C147.231932,82.5810944 146.421974,82.209924 145.366942,82.209924 C144.312246,82.209924 143.499932,82.5810944 142.930672,83.3224311 C142.36074,84.0637678 142.076278,85.1213859 142.076278,86.4949506 C142.076278,87.8691847 142.36074,88.9288109 142.930672,89.6744986 C143.499932,90.4205209 144.312246,90.7926954 145.366942,90.7926954 C146.421974,90.7926954 147.231932,90.4205209 147.797152,89.6744986 M150.68351,91.656863 C149.518396,93.0856515 147.750695,93.8002131 145.379398,93.8002131 C143.008437,93.8002131 141.240736,93.0856515 140.075959,91.656863 C138.911518,90.2274052 138.32913,88.5071024 138.32913,86.4949506 C138.32913,84.516937 138.911518,82.8026587 140.075959,81.3527848 C141.240736,79.9025762 143.008437,79.1773046 145.379398,79.1773046 C147.750695,79.1773046 149.518396,79.9025762 150.68351,81.3527848 C151.84795,82.8026587 152.430339,84.516937 152.430339,86.4949506 C152.430339,88.5071024 151.84795,90.2274052 150.68351,91.656863" id="Fill-26" fill="#FFFFFF" mask="url(#mask-2)"></path>
                        <path d="M162.549828,83.6697047 C162.059342,82.8560751 161.264533,82.4494276 160.165064,82.4494276 C158.843413,82.4494276 157.935493,83.0655905 157.440967,84.2989205 C157.185457,84.9535727 157.057533,85.7842714 157.057533,86.7910167 C157.057533,88.3851416 157.487424,89.5053466 158.348551,90.1506275 C158.859572,90.5284917 159.464852,90.7175911 160.164391,90.7175911 C161.179027,90.7175911 161.952627,90.3313597 162.485866,89.5595663 C163.018768,88.7877728 163.285051,87.7599421 163.285051,86.4764088 C163.285051,85.4191254 163.03964,84.4836689 162.549828,83.6697047 M165.318362,81.0899198 C166.443752,82.2733811 167.006278,84.0097489 167.006278,86.3000276 C167.006278,88.7161493 166.456207,90.5579443 165.356739,91.8244085 C164.256597,93.0912073 162.840349,93.7247741 161.107995,93.7247741 C160.003814,93.7247741 159.086131,93.4516677 158.355957,92.9067936 C157.957374,92.6045692 157.566198,92.1644528 157.18411,91.5854404 L157.18411,98.7333989 L153.614708,98.7333989 L153.614708,79.6176218 L157.070326,79.6176218 L157.070326,81.6438306 C157.460829,81.0480837 157.876917,80.5788493 158.31859,80.2347888 C159.125181,79.621638 160.085281,79.3157321 161.197542,79.3157321 C162.819814,79.3157321 164.193308,79.907128 165.318362,81.0899198" id="Fill-27" fill="#FFFFFF" mask="url(#mask-2)"></path>
                        <path d="M171.848553,82.9941009 C171.338542,83.5165508 171.018397,84.2244186 170.88778,85.1173696 L177.102506,85.1173696 C177.036524,84.1648439 176.716715,83.4425845 176.141396,82.9499219 C175.566414,82.4569246 174.853072,82.209924 174.002044,82.209924 C173.076282,82.209924 172.358227,82.4713163 171.848553,82.9941009 M177.244905,79.8958824 C178.207697,80.3242847 179.002506,81.0006917 179.628995,81.9247687 C180.194215,82.7397371 180.561153,83.6845649 180.7288,84.7602561 C180.825416,85.3908107 180.865476,86.298488 180.847634,87.4829533 L170.798907,87.4829533 C170.854789,88.8588608 171.336186,89.82377 172.241413,90.377346 C172.79283,90.7214066 173.455676,90.8931022 174.230623,90.8931022 C175.052363,90.8931022 175.720259,90.6835867 176.233636,90.2645557 C176.514058,90.0379711 176.761152,89.7230285 176.976265,89.3203973 L180.659115,89.3203973 C180.562163,90.1336922 180.116451,90.9610441 179.321978,91.799106 C178.085497,93.1331774 176.3555,93.8002131 174.130977,93.8002131 C172.294939,93.8002131 170.675023,93.2376004 169.271231,92.1123751 C167.868112,90.9874845 167.16588,89.1567343 167.16588,86.6211284 C167.16588,84.2445 167.799774,82.423121 169.06689,81.1549834 C170.33367,79.8875152 171.978496,79.252275 174.000361,79.252275 C175.201495,79.252275 176.282785,79.4671455 177.244905,79.8958824" id="Fill-28" fill="#FFFFFF" mask="url(#mask-2)"></path>
                        <path d="M189.039586,79.2971568 C189.086042,79.3011731 189.189391,79.3078669 189.349632,79.3158994 L189.349632,82.9901181 C189.122063,82.9653511 188.919742,82.9482819 188.742332,82.9399147 C188.565259,82.9318822 188.421513,82.9275312 188.312105,82.9275312 C186.860173,82.9275312 185.885935,83.3974349 185.388043,84.3369077 C185.109305,84.865382 184.970272,85.6793463 184.970272,86.7788005 L184.970272,93.3343591 L181.337581,93.3343591 L181.337581,79.6177891 L184.78007,79.6177891 L184.78007,82.0091439 C185.337884,81.0944381 185.822646,80.4695733 186.236041,80.1342146 C186.911343,79.5719367 187.788629,79.2907977 188.868909,79.2907977 C188.936574,79.2907977 188.993129,79.2924712 189.039586,79.2971568" id="Fill-29" fill="#FFFFFF" mask="url(#mask-2)"></path>
                        <path d="M192.964548,88.9554187 C193.040965,89.592667 193.206593,90.0465057 193.460756,90.3149265 C193.909835,90.792528 194.741001,91.0318309 195.953245,91.0318309 C196.665577,91.0318309 197.231806,90.9270731 197.651261,90.7168883 C198.071052,90.5080422 198.280779,90.1924302 198.280779,89.7727299 C198.280779,89.3707681 198.111785,89.0645274 197.773798,88.8543425 C197.435474,88.644827 196.177111,88.284032 193.999718,87.7722921 C192.431982,87.3870648 191.327464,86.9041082 190.686163,86.3250958 C190.044526,85.7547853 189.72438,84.9324538 189.72438,83.8591053 C189.72438,82.5916371 190.225302,81.5032276 191.227145,80.5935422 C192.229661,79.6828527 193.639849,79.2276753 195.457709,79.2276753 C197.182993,79.2276753 198.588469,79.5697277 199.675482,80.2534979 C200.761485,80.9372681 201.385954,82.1177171 201.546531,83.7961837 L197.939089,83.7961837 C197.888256,83.3346472 197.756966,82.9698359 197.545556,82.7010805 C197.147983,82.2144423 196.470662,81.9711232 195.514602,81.9711232 C194.727872,81.9711232 194.167365,82.0929501 193.832744,82.3359345 C193.498797,82.5792536 193.331823,82.8647435 193.331823,83.1917349 C193.331823,83.603068 193.508896,83.9009415 193.865062,84.0853552 C194.220218,84.2784709 195.475551,84.6098133 197.631399,85.0793823 C199.068182,85.4150757 200.145769,85.9227993 200.86315,86.6018838 C201.572116,87.2903396 201.926262,88.1501563 201.926262,89.1820033 C201.926262,90.5411764 201.416588,91.6506713 200.397576,92.5101533 C199.378901,93.3703047 197.804096,93.8003804 195.673496,93.8003804 C193.50048,93.8003804 191.89605,93.3448683 190.860206,92.4345135 C189.824699,91.5244934 189.306609,90.3647952 189.306609,88.9554187 L192.964548,88.9554187 Z" id="Fill-30" fill="#FFFFFF" mask="url(#mask-2)"></path>
                        <polygon id="Fill-31" fill="#FFFFFF" mask="url(#mask-2)" points="130.175454 61.7583351 116.608494 61.7583351 92.8669034 0.168147885 107.665295 0.168147885"></polygon>
                    </g>
                </g>
            </g>
        </g>
    </g>
</svg>